<svg id="Capa_1" enable-background="new 0 0 511.993 511.993" height="512" viewBox="0 0 511.993 511.993" width="512" xmlns="http://www.w3.org/2000/svg"><g><path d="m453.721 224.083-31.767 8.723v-110.608l31.767 8.723c11.776 3.234 19.939 13.94 19.939 26.152v40.858c-.001 12.212-8.163 22.918-19.939 26.152z" fill="#88d37f"/><path d="m451.954 130.436-30-8.238v110.608l30-8.238z" fill="#5ec682"/><path d="m453.721 362.155-31.767 8.723v-110.608l31.767 8.723c11.776 3.234 19.939 13.939 19.939 26.152v40.858c-.001 12.213-8.163 22.919-19.939 26.152z" fill="#b0ade2"/><path d="m451.954 268.508-30-8.238v110.609l30-8.238z" fill="#a09cdc"/><path d="m175.247 133.982-20.631-20.631c-8.662-8.661-8.662-22.705 0-31.366l67.982-67.982c8.661-8.662 22.704-8.662 31.366 0l20.631 20.631c8.662 8.662 8.662 22.705 0 31.366l-67.982 67.982c-8.662 8.661-22.705 8.661-31.366 0z" fill="#f2d98d"/><path d="m355.942 99.954h-68.207c-10.1 0-18.287-8.187-18.287-18.287v-51.36c0-10.1 8.187-18.287 18.287-18.287h68.207c10.099 0 18.287 8.187 18.287 18.287v51.36c0 10.1-8.188 18.287-18.287 18.287z" fill="#a2ddfd"/><path d="m373.483 473.11h-259.713c-15.957 0-28.893-12.936-28.893-28.893v-360.657c0-15.957 12.936-28.893 28.893-28.893h259.713c26.769 0 48.47 21.701 48.47 48.47v321.503c.001 26.769-21.7 48.47-48.47 48.47z" fill="#e7889d"/><path d="m354.673 361.698c-9.775-9.776-22.773-15.16-36.598-15.16-13.824 0-26.822 5.384-36.598 15.16l-37.818 37.818c-20.181 20.181-20.181 53.017 0 73.197l.396.396h129.429c18.626 0 34.789-10.512 42.905-25.922.606-13.997-4.418-28.194-15.082-38.857z" fill="#e16e7e"/><path d="m84.877 83.56v360.656c0 15.957 12.936 28.893 28.894 28.893h90.408c-65.547-89.575-65.719-182.744-66.483-418.443h-23.926c-15.957.001-28.893 12.937-28.893 28.894z" fill="#e16e7e"/><g fill="#59636f"><path d="m96.554 99.954h-38.837c-10.705 0-19.383 8.678-19.383 19.383v5.522c0 10.705 8.678 19.383 19.383 19.383h38.837c10.705 0 19.383-8.678 19.383-19.383v-5.522c0-10.705-8.678-19.383-19.383-19.383z"/><path d="m96.554 194.481h-38.837c-10.705 0-19.383 8.678-19.383 19.383v5.522c0 10.705 8.678 19.383 19.383 19.383h38.837c10.705 0 19.383-8.678 19.383-19.383v-5.522c0-10.705-8.678-19.383-19.383-19.383z"/><path d="m96.554 289.008h-38.837c-10.705 0-19.383 8.678-19.383 19.383v5.522c0 10.705 8.678 19.383 19.383 19.383h38.837c10.705 0 19.383-8.678 19.383-19.383v-5.522c0-10.705-8.678-19.383-19.383-19.383z"/><path d="m96.554 383.535h-38.837c-10.705 0-19.383 8.678-19.383 19.383v5.522c0 10.705 8.678 19.383 19.383 19.383h38.837c10.705 0 19.383-8.678 19.383-19.383v-5.522c0-10.705-8.678-19.383-19.383-19.383z"/></g><path d="m343.993 123.349h-150.096c-11.484 0-20.794 9.31-20.794 20.794v37.038c0 11.484 9.31 20.794 20.794 20.794h150.096c11.484 0 20.794-9.31 20.794-20.794v-37.038c0-11.484-9.309-20.794-20.794-20.794z" fill="#fbf1cf"/><path d="m380.094 460.315-37.819 37.819c-8.497 8.497-22.274 8.497-30.771 0l-46.633-46.633c-8.497-8.497-8.497-22.273 0-30.771l37.819-37.819c8.497-8.497 22.273-8.497 30.771 0l46.633 46.633c8.497 8.497 8.497 22.274 0 30.771z" fill="#f6ee86"/><g><g><ellipse cx="185.099" cy="298.522" fill="#fff" rx="30.938" ry="24.637"/><ellipse cx="352.792" cy="298.522" fill="#fff" rx="30.938" ry="24.637"/><ellipse cx="268.945" cy="279.593" fill="#4e5660" rx="16.423" ry="18.377"/></g></g><path d="m245.023 279.593c0 14.269 10.731 25.877 23.923 25.877 13.19 0 23.922-11.608 23.922-25.877 0-14.268-10.731-25.877-23.922-25.877-13.192 0-23.923 11.608-23.923 25.877zm32.845 0c0 5.998-4.002 10.877-8.922 10.877s-8.923-4.879-8.923-10.877c0-5.997 4.003-10.877 8.923-10.877s8.922 4.879 8.922 10.877zm-95.097-22.801v12c0 4.142 3.357 7.5 7.5 7.5s7.5-3.358 7.5-7.5v-12c0-4.142-3.357-7.5-7.5-7.5s-7.5 3.358-7.5 7.5zm272.935-25.477c14.986-4.115 25.453-17.843 25.453-33.384v-40.858c0-15.541-10.467-29.269-25.452-33.384l-26.253-7.209v-13.343c0-28.061-20.759-51.359-47.726-55.358v-17.472c0-14.219-11.568-25.787-25.787-25.787h-68.207c-8.859 0-16.687 4.491-21.332 11.315l-7.135-7.135c-11.597-11.598-30.372-11.601-41.974 0l-38.466 38.467h-21.814c-4.143 0-7.5 3.358-7.5 7.5s3.357 7.5 7.5 7.5c1.283 0-19.319-.003 217.217.019 22.247.401 40.224 18.611 40.224 40.951v316.258c0 4.142 3.358 7.5 7.5 7.5 4.143 0 7.5-3.358 7.5-7.5v-42.798l26.253-7.209c14.985-4.115 25.452-17.843 25.452-33.384v-40.858c0-15.541-10.467-29.269-25.452-33.384l-26.253-7.209v-16.027zm-26.252-99.28 22.28 6.118c8.493 2.332 14.425 10.112 14.425 18.919v40.858c0 8.808-5.932 16.587-14.425 18.919l-22.28 6.119zm-167.507-84.868h-61.907l27.86-27.861c5.738-5.735 15.022-5.738 20.76 0l13.287 13.286zm104.781 0h-89.781c.002-18.556.04-17.64.04-17.647.406-5.581 5.065-10 10.747-10h68.207c5.948 0 10.787 4.839 10.787 10.787zm85.006 229.059c8.493 2.332 14.425 10.112 14.425 18.919v40.858c0 8.807-5.932 16.587-14.425 18.919l-22.28 6.118v-90.934zm-111.614-19.434v12c0 4.142 3.357 7.5 7.5 7.5s7.5-3.358 7.5-7.5v-12c0-4.142-3.357-7.5-7.5-7.5s-7.5 3.358-7.5 7.5zm77.083 190.1c-3.358-2.423-8.045-1.667-10.471 1.692-4.824 6.685-11.512 11.679-19.066 14.475 9.082-11.453 8.378-28.173-2.27-38.819l-46.633-46.633c-11.408-11.409-29.97-11.407-41.378 0l-37.818 37.819c-11.407 11.408-11.407 29.969 0 41.377l8.806 8.806h-154.603c-11.797 0-21.394-9.597-21.394-21.394v-8.894h4.178c14.823 0 26.883-12.06 26.883-26.883v-5.522c0-14.824-12.06-26.883-26.883-26.883h-4.178v-35.239h4.178c14.823 0 26.883-12.06 26.883-26.883v-5.521c0-14.824-12.06-26.883-26.883-26.883h-4.178v-35.239h4.178c14.823 0 26.883-12.06 26.883-26.883v-5.521c0-14.823-12.06-26.883-26.883-26.883h-4.178v-35.239h4.178c14.823 0 26.883-12.06 26.883-26.883v-5.522c0-14.823-12.06-26.883-26.883-26.883h-4.178v-8.894c0-11.796 9.597-21.393 21.394-21.393h7.557c4.143 0 7.5-3.358 7.5-7.5s-3.357-7.5-7.5-7.5h-7.557c-20.067 0-36.394 16.326-36.394 36.393v8.894h-19.659c-14.823 0-26.883 12.059-26.883 26.883v5.522c0 14.823 12.06 26.883 26.883 26.883h19.659v35.239h-19.659c-14.823 0-26.883 12.06-26.883 26.883v5.521c0 14.824 12.06 26.883 26.883 26.883h19.659v35.239h-19.659c-14.823 0-26.883 12.06-26.883 26.883v5.521c0 14.824 12.06 26.883 26.883 26.883h19.659v35.239h-19.659c-14.823 0-26.883 12.06-26.883 26.883v5.522c0 14.824 12.06 26.883 26.883 26.883h19.659v8.894c0 20.067 16.326 36.394 36.394 36.394h169.604l22.827 22.827c11.407 11.407 29.969 11.409 41.378 0l22.826-22.827h3.078c17.931 0 34.907-8.69 45.413-23.247 2.424-3.358 1.666-8.046-1.693-10.47zm-359.486-310.15c-6.552 0-11.883-5.331-11.883-11.883v-5.522c0-6.552 5.331-11.883 11.883-11.883h38.837c6.552 0 11.883 5.33 11.883 11.883v5.522c0 6.552-5.331 11.883-11.883 11.883zm0 94.527c-6.552 0-11.883-5.331-11.883-11.883v-5.521c0-6.552 5.331-11.883 11.883-11.883h38.837c6.552 0 11.883 5.331 11.883 11.883v5.521c0 6.552-5.331 11.883-11.883 11.883zm0 94.527c-6.552 0-11.883-5.331-11.883-11.883v-5.521c0-6.552 5.331-11.883 11.883-11.883h38.837c6.552 0 11.883 5.331 11.883 11.883v5.521c0 6.552-5.331 11.883-11.883 11.883zm0 94.527c-6.552 0-11.883-5.331-11.883-11.883v-5.522c0-6.552 5.331-11.883 11.883-11.883h38.837c6.552 0 11.883 5.331 11.883 11.883v5.522c0 6.552-5.331 11.883-11.883 11.883zm317.073 34.688-37.819 37.82c-5.558 5.558-14.604 5.56-20.163 0l-46.633-46.633c-5.56-5.559-5.56-14.605 0-20.164l37.818-37.819c5.56-5.56 14.604-5.559 20.163 0l46.634 46.633c5.574 5.572 5.574 14.591 0 20.163zm-2.502-273.831v-37.038c0-15.602-12.692-28.294-28.294-28.294h-150.097c-15.602 0-28.294 12.692-28.294 28.294v37.038c0 15.602 12.692 28.294 28.294 28.294h150.097c15.601 0 28.294-12.692 28.294-28.294zm-15 0c0 7.33-5.964 13.294-13.294 13.294h-150.097c-7.33 0-13.294-5.964-13.294-13.294v-37.038c0-7.33 5.964-13.294 13.294-13.294h150.097c7.33 0 13.294 5.964 13.294 13.294z"/></g></svg>